solid nodemcu_DIN_rail_case
facet normal 3.4872640092444164e-12 -2.815253128916852e-06 0.9999999999960372
  outer loop
    vertex 432.7496724917182 92.00469961305309 18.7192594967275
    vertex 430.74968696534097 98.00470466513744 18.71928183359224
    vertex 430.7496724917246 92.00470466520137 18.71925950941969
  endloop
endfacet
facet normal 3.4872640092444164e-12 -2.815253128916852e-06 0.9999999999960372
  outer loop
    vertex 430.74968696534097 98.00470466513744 18.71928183359224
    vertex 432.7496724917182 92.00469961305309 18.7192594967275
    vertex 432.7496770561318 94.00469961301728 18.719270559896252
  endloop
endfacet
facet normal 3.4872640092444164e-12 -2.815253128916852e-06 0.9999999999960372
  outer loop
    vertex 430.74968696534097 98.00470466513744 18.71928183359224
    vertex 432.7496770561318 94.00469961301728 18.719270559896252
    vertex 433.2496770561305 98.00470260072838 18.71928183358643
  endloop
endfacet
facet normal 3.4872640092444164e-12 -2.815253128916852e-06 0.9999999999960372
  outer loop
    vertex 433.2496770561305 98.00470260072838 18.71928183358643
    vertex 432.7496770561318 94.00469961301728 18.719270559896252
    vertex 433.2496770561305 94.00469847191381 18.719270572553572
  endloop
endfacet
facet normal 1.0 2.438834171069459e-18 -8.662937034352811e-13
  outer loop
    vertex 443.2496770509375 94.00469847191381 18.719270572553572
    vertex 443.24967705094184 98.00468852446272 23.71928183354918
    vertex 443.24967705094184 94.00468439564816 23.719270572533762
  endloop
endfacet
facet normal 1.0 2.438834171069459e-18 -8.662937034352811e-13
  outer loop
    vertex 443.24967705094184 98.00468852446272 23.71928183354918
    vertex 443.2496770509375 94.00469847191381 18.719270572553572
    vertex 443.2496770509375 98.00470260072838 18.719281833568992
  endloop
endfacet
facet normal 8.717926385117108e-13 -2.8152531289319753e-06 0.9999999999960372
  outer loop
    vertex 443.24967705094184 94.00468439564816 23.719270572533762
    vertex 433.24967705613483 98.00468852446272 23.71928183356662
    vertex 433.24967705613483 94.00468439564816 23.719270572533762
  endloop
endfacet
facet normal 8.717926385117108e-13 -2.8152531289319753e-06 0.9999999999960372
  outer loop
    vertex 433.24967705613483 98.00468852446272 23.71928183356662
    vertex 443.24967705094184 94.00468439564816 23.719270572533762
    vertex 443.24967705094184 98.00468852446272 23.71928183354918
  endloop
endfacet
facet normal -1.0 -2.4388379472736896e-18 8.662937034352811e-13
  outer loop
    vertex 433.24967705613483 98.00468852446272 23.71928183356662
    vertex 433.2496770561305 94.00469847191381 18.719270572553572
    vertex 433.24967705613483 94.00468439564816 23.719270572533762
  endloop
endfacet
facet normal -1.0 -2.4388379472736896e-18 8.662937034352811e-13
  outer loop
    vertex 433.2496770561305 94.00469847191381 18.719270572553572
    vertex 433.24967705613483 98.00468852446272 23.71928183356662
    vertex 433.2496770561305 98.00470260072838 18.71928183358643
  endloop
endfacet
facet normal 1.7150544660988037e-06 0.9999999999953062 2.5390014289510857e-06
  outer loop
    vertex 445.7496869601296 98.00469087180795 10.419424483794323
    vertex 439.3810578126389 98.00472558470778 12.93812434189422
    vertex 445.7496869601326 98.00469227863393 18.71928183355737
  endloop
endfacet
facet normal 1.7150544660988037e-06 0.9999999999953062 2.5390014289510857e-06
  outer loop
    vertex 439.3810578126389 98.00472558470778 12.93812434189422
    vertex 445.7496869601296 98.00469087180795 10.419424483794323
    vertex 439.04968696274136 98.00472679861821 12.683854545740228
  endloop
endfacet
facet normal 1.7150544660988037e-06 0.9999999999953062 2.5390014289510857e-06
  outer loop
    vertex 439.04968696274136 98.00472679861821 12.683854545740228
    vertex 445.7496869601296 98.00469087180795 10.419424483794323
    vertex 438.6637974349065 98.00472786627547 12.524013869735251
  endloop
endfacet
facet normal 1.7150544660988037e-06 0.9999999999953062 2.5390014289510857e-06
  outer loop
    vertex 438.6637974349065 98.00472786627547 12.524013869735251
    vertex 445.7496869601296 98.00469087180795 10.419424483794323
    vertex 430.749686965338 98.00475280432556 10.419424483829193
  endloop
endfacet
facet normal 1.7150544660988037e-06 0.9999999999953062 2.5390014289510857e-06
  outer loop
    vertex 438.6637974349065 98.00472786627547 12.524013869735251
    vertex 430.749686965338 98.00475280432556 10.419424483829193
    vertex 438.24968696274374 98.00472871492049 12.469495191799817
  endloop
endfacet
facet normal 1.7150544660988037e-06 0.9999999999953062 2.5390014289510857e-06
  outer loop
    vertex 445.7496869601326 98.00469227863393 18.71928183355737
    vertex 439.3810578126389 98.00472558470778 12.93812434189422
    vertex 439.6353276087948 98.00472430727015 13.269495191790034
  endloop
endfacet
facet normal 1.7150544660988037e-06 0.9999999999953062 2.5390014289510857e-06
  outer loop
    vertex 445.7496869601326 98.00469227863393 18.71928183355737
    vertex 439.6353276087948 98.00472430727015 13.269495191790034
    vertex 439.79516828480166 98.00472305336064 13.655384719623497
  endloop
endfacet
facet normal 1.7150544660988037e-06 0.9999999999953062 2.5390014289510857e-06
  outer loop
    vertex 445.7496869601326 98.00469227863393 18.71928183355737
    vertex 439.79516828480166 98.00472305336064 13.655384719623497
    vertex 439.84968696273904 98.00472190843105 14.069495191785352
  endloop
endfacet
facet normal 1.7150544660988037e-06 0.9999999999953062 2.5390014289510857e-06
  outer loop
    vertex 445.7496869601326 98.00469227863393 18.71928183355737
    vertex 439.84968696273904 98.00472190843105 14.069495191785352
    vertex 439.79516828480166 98.00472095050647 14.48360566394768
  endloop
endfacet
facet normal 1.7150544660988037e-06 0.9999999999953062 2.5390014289510857e-06
  outer loop
    vertex 445.7496869601326 98.00469227863393 18.71928183355737
    vertex 439.79516828480166 98.00472095050647 14.48360566394768
    vertex 439.6353276087948 98.00472024486787 14.869495191782535
  endloop
endfacet
facet normal 1.7150544660988037e-06 0.9999999999953062 2.5390014289510857e-06
  outer loop
    vertex 445.7496869601326 98.00469227863393 18.71928183355737
    vertex 439.6353276087948 98.00472024486787 14.869495191782535
    vertex 439.3810578126389 98.00471983960337 15.200866041680564
  endloop
endfacet
facet normal 1.7150544660988037e-06 0.9999999999953062 2.5390014289510857e-06
  outer loop
    vertex 445.7496869601326 98.00469227863393 18.71928183355737
    vertex 439.3810578126389 98.00471983960337 15.200866041680564
    vertex 439.04968696274136 98.00471976233105 15.45513583783744
  endloop
endfacet
facet normal 1.7150544660988037e-06 0.9999999999953062 2.5390014289510857e-06
  outer loop
    vertex 445.7496869601326 98.00469227863393 18.71928183355737
    vertex 439.04968696274136 98.00471976233105 15.45513583783744
    vertex 438.6637974349065 98.0047200183169 15.61497651384578
  endloop
endfacet
facet normal 1.7150544660988037e-06 0.9999999999953062 2.5390014289510857e-06
  outer loop
    vertex 445.7496869601326 98.00469227863393 18.71928183355737
    vertex 438.6637974349065 98.0047200183169 15.61497651384578
    vertex 438.24968696274374 98.00472059011592 15.66949519178482
  endloop
endfacet
facet normal 1.7150544660988037e-06 0.9999999999953062 2.5390014289510857e-06
  outer loop
    vertex 430.749686965338 98.00475280432556 10.419424483829193
    vertex 437.83557649058093 98.00472928671951 12.524013869738857
    vertex 438.24968696274374 98.00472871492049 12.469495191799817
  endloop
endfacet
facet normal 1.7150544660988037e-06 0.9999999999953062 2.5390014289510857e-06
  outer loop
    vertex 437.83557649058093 98.00472928671951 12.524013869738857
    vertex 430.749686965338 98.00475280432556 10.419424483829193
    vertex 437.44968696274606 98.00472954270536 12.683854545747197
  endloop
endfacet
facet normal 1.7150544660988037e-06 0.9999999999953062 2.5390014289510857e-06
  outer loop
    vertex 437.44968696274606 98.00472954270536 12.683854545747197
    vertex 430.749686965338 98.00475280432556 10.419424483829193
    vertex 437.11831611284856 98.00472946543304 12.938124341904075
  endloop
endfacet
facet normal 1.7150544660988037e-06 0.9999999999953062 2.5390014289510857e-06
  outer loop
    vertex 437.11831611284856 98.00472946543304 12.938124341904075
    vertex 430.749686965338 98.00475280432556 10.419424483829193
    vertex 430.74968696534097 98.00470466513744 18.71928183359224
  endloop
endfacet
facet normal 1.7150544660988037e-06 0.9999999999953062 2.5390014289510857e-06
  outer loop
    vertex 437.11831611284856 98.00472946543304 12.938124341904075
    vertex 430.74968696534097 98.00470466513744 18.71928183359224
    vertex 436.8640463166926 98.00472906016853 13.269495191802104
  endloop
endfacet
facet normal 1.7150544660988037e-06 0.9999999999953062 2.5390014289510857e-06
  outer loop
    vertex 436.8640463166926 98.00472906016853 13.269495191802104
    vertex 430.74968696534097 98.00470466513744 18.71928183359224
    vertex 436.70420564068576 98.00472835452993 13.65538471963696
  endloop
endfacet
facet normal 1.7150544660988037e-06 0.9999999999953062 2.5390014289510857e-06
  outer loop
    vertex 436.70420564068576 98.00472835452993 13.65538471963696
    vertex 430.74968696534097 98.00470466513744 18.71928183359224
    vertex 436.64968696274843 98.00472739660536 14.069495191799287
  endloop
endfacet
facet normal 1.7150544660988037e-06 0.9999999999953062 2.5390014289510857e-06
  outer loop
    vertex 436.64968696274843 98.00472739660536 14.069495191799287
    vertex 430.74968696534097 98.00470466513744 18.71928183359224
    vertex 436.70420564068576 98.00472625167578 14.483605663961143
  endloop
endfacet
facet normal 1.7150544660988037e-06 0.9999999999953062 2.5390014289510857e-06
  outer loop
    vertex 436.70420564068576 98.00472625167578 14.483605663961143
    vertex 430.74968696534097 98.00470466513744 18.71928183359224
    vertex 436.8640463166926 98.00472499776625 14.869495191794606
  endloop
endfacet
facet normal 1.7150544660988037e-06 0.9999999999953062 2.5390014289510857e-06
  outer loop
    vertex 436.8640463166926 98.00472499776625 14.869495191794606
    vertex 430.74968696534097 98.00470466513744 18.71928183359224
    vertex 437.11831611284856 98.00472372032863 15.20086604169042
  endloop
endfacet
facet normal 1.7150544660988037e-06 0.9999999999953062 2.5390014289510857e-06
  outer loop
    vertex 437.11831611284856 98.00472372032863 15.20086604169042
    vertex 430.74968696534097 98.00470466513744 18.71928183359224
    vertex 437.44968696274606 98.0047225064182 15.455135837844413
  endloop
endfacet
facet normal 1.7150544660988037e-06 0.9999999999953062 2.5390014289510857e-06
  outer loop
    vertex 437.44968696274606 98.0047225064182 15.455135837844413
    vertex 430.74968696534097 98.00470466513744 18.71928183359224
    vertex 437.83557649058093 98.00472143876092 15.61497651384939
  endloop
endfacet
facet normal 1.7150544660988037e-06 0.9999999999953062 2.5390014289510857e-06
  outer loop
    vertex 437.83557649058093 98.00472143876092 15.61497651384939
    vertex 430.74968696534097 98.00470466513744 18.71928183359224
    vertex 438.24968696274374 98.00472059011592 15.66949519178482
  endloop
endfacet
facet normal 1.7150544660988037e-06 0.9999999999953062 2.5390014289510857e-06
  outer loop
    vertex 438.24968696274374 98.00472059011592 15.66949519178482
    vertex 430.74968696534097 98.00470466513744 18.71928183359224
    vertex 433.2496770561305 98.00470260072838 18.71928183358643
  endloop
endfacet
facet normal 1.7150544660988037e-06 0.9999999999953062 2.5390014289510857e-06
  outer loop
    vertex 438.24968696274374 98.00472059011592 15.66949519178482
    vertex 433.2496770561305 98.00470260072838 18.71928183358643
    vertex 445.7496869601326 98.00469227863393 18.71928183355737
  endloop
endfacet
facet normal 1.7150544660988037e-06 0.9999999999953062 2.5390014289510857e-06
  outer loop
    vertex 445.7496869601326 98.00469227863393 18.71928183355737
    vertex 433.2496770561305 98.00470260072838 18.71928183358643
    vertex 443.2496770509375 98.00470260072838 18.719281833568992
  endloop
endfacet
facet normal 1.7150544660988037e-06 0.9999999999953062 2.5390014289510857e-06
  outer loop
    vertex 433.2496770561305 98.00470260072838 18.71928183358643
    vertex 443.24967705094184 98.00468852446272 23.71928183354918
    vertex 443.2496770509375 98.00470260072838 18.719281833568992
  endloop
endfacet
facet normal 1.7150544660988037e-06 0.9999999999953062 2.5390014289510857e-06
  outer loop
    vertex 443.24967705094184 98.00468852446272 23.71928183354918
    vertex 433.2496770561305 98.00470260072838 18.71928183358643
    vertex 433.24967705613483 98.00468852446272 23.71928183356662
  endloop
endfacet
facet normal -6.974174633757779e-12 -2.8152509494222987e-06 0.9999999999960372
  outer loop
    vertex 445.74967170612155 92.00468510338328 18.719270164929053
    vertex 443.7496770509357 94.0046971357165 18.719270585216922
    vertex 443.7496717061274 92.00468996043773 18.719270177592403
  endloop
endfacet
facet normal -6.974174633757779e-12 -2.8152509494222987e-06 0.9999999999960372
  outer loop
    vertex 443.7496770509357 94.0046971357165 18.719270585216922
    vertex 443.2496770509375 98.00470260072838 18.719281833568992
    vertex 443.2496770509375 94.00469847191381 18.719270572553572
  endloop
endfacet
facet normal -6.974174633757779e-12 -2.8152509494222987e-06 0.9999999999960372
  outer loop
    vertex 443.2496770509375 98.00470260072838 18.719281833568992
    vertex 443.7496770509357 94.0046971357165 18.719270585216922
    vertex 445.7496869601326 98.00469227863393 18.71928183355737
  endloop
endfacet
facet normal -6.974174633757779e-12 -2.8152509494222987e-06 0.9999999999960372
  outer loop
    vertex 445.7496869601326 98.00469227863393 18.71928183355737
    vertex 443.7496770509357 94.0046971357165 18.719270585216922
    vertex 445.74967170612155 92.00468510338328 18.719270164929053
  endloop
endfacet
facet normal -0.9999999999969316 2.4773006918458404e-06 1.2826297024082086e-11
  outer loop
    vertex 430.74968696534097 98.00470466513744 18.71928183359224
    vertex 430.7496724917216 92.0047528043895 10.419402159656642
    vertex 430.7496724917246 92.00470466520137 18.71925950941969
  endloop
endfacet
facet normal -0.9999999999969316 2.4773006918458404e-06 1.2826297024082086e-11
  outer loop
    vertex 430.7496724917216 92.0047528043895 10.419402159656642
    vertex 430.74968696534097 98.00470466513744 18.71928183359224
    vertex 430.749686965338 98.00475280432556 10.419424483829193
  endloop
endfacet
facet normal 1.0144370347838715e-11 2.8152511848751175e-06 -0.9999999999960372
  outer loop
    vertex 430.749686965338 98.00475280432556 10.419424483829193
    vertex 432.7496727272421 92.00474872771011 10.41940214698275
    vertex 430.7496724917216 92.0047528043895 10.419402159656642
  endloop
endfacet
facet normal 1.0144370347838715e-11 2.8152511848751175e-06 -0.9999999999960372
  outer loop
    vertex 432.7496727272421 92.00474872771011 10.41940214698275
    vertex 430.749686965338 98.00475280432556 10.419424483829193
    vertex 432.74967729165576 94.00474872767431 10.419413210151504
  endloop
endfacet
facet normal 1.0144370347838715e-11 2.8152511848751175e-06 -0.9999999999960372
  outer loop
    vertex 432.74967729165576 94.00474872767431 10.419413210151504
    vertex 430.749686965338 98.00475280432556 10.419424483829193
    vertex 445.7496869601296 98.00469087180795 10.419424483794323
  endloop
endfacet
facet normal 1.0144370347838715e-11 2.8152511848751175e-06 -0.9999999999960372
  outer loop
    vertex 432.74967729165576 94.00474872767431 10.419413210151504
    vertex 445.7496869601296 98.00469087180795 10.419424483794323
    vertex 443.74967728645964 94.00469670435943 10.419413235472176
  endloop
endfacet
facet normal 1.0144370347838715e-11 2.8152511848751175e-06 -0.9999999999960372
  outer loop
    vertex 443.74967728645964 94.00469670435943 10.419413235472176
    vertex 445.7496869601296 98.00469087180795 10.419424483794323
    vertex 445.74967170611853 92.00468369655731 10.419412815166003
  endloop
endfacet
facet normal 1.0144370347838715e-11 2.8152511848751175e-06 -0.9999999999960372
  outer loop
    vertex 445.74967170611853 92.00468369655731 10.419412815166003
    vertex 443.74967194165134 92.00468952908066 10.419412827847657
    vertex 443.74967728645964 94.00469670435943 10.419413235472176
  endloop
endfacet
facet normal 0.9999999999969316 -2.477300691882997e-06 3.7219835095923747e-13
  outer loop
    vertex 445.7496869601296 98.00469087180795 10.419424483794323
    vertex 445.74967170612155 92.00468510338328 18.719270164929053
    vertex 445.74967170611853 92.00468369655731 10.419412815166003
  endloop
endfacet
facet normal 0.9999999999969316 -2.477300691882997e-06 3.7219835095923747e-13
  outer loop
    vertex 445.74967170612155 92.00468510338328 18.719270164929053
    vertex 445.7496869601296 98.00469087180795 10.419424483794323
    vertex 445.7496869601326 98.00469227863393 18.71928183355737
  endloop
endfacet
facet normal -2.282206809223183e-06 -0.9999999999820965 -5.531584376239262e-06
  outer loop
    vertex 432.7496724917182 92.00469961305309 18.7192594967275
    vertex 430.7496724917216 92.0047528043895 10.419402159656642
    vertex 432.7496727272421 92.00474872771011 10.41940214698275
  endloop
endfacet
facet normal -2.282206809223183e-06 -0.9999999999820965 -5.531584376239262e-06
  outer loop
    vertex 430.7496724917216 92.0047528043895 10.419402159656642
    vertex 432.7496724917182 92.00469961305309 18.7192594967275
    vertex 430.7496724917246 92.00470466520137 18.71925950941969
  endloop
endfacet
facet normal -2.672394601615211e-06 -0.9999999999964084 -2.0381152815283008e-07
  outer loop
    vertex 445.74967170612155 92.00468510338328 18.719270164929053
    vertex 443.74967194165134 92.00468952908066 10.419412827847657
    vertex 445.74967170611853 92.00468369655731 10.419412815166003
  endloop
endfacet
facet normal -2.672394601615211e-06 -0.9999999999964084 -2.0381152815283008e-07
  outer loop
    vertex 443.74967194165134 92.00468952908066 10.419412827847657
    vertex 445.74967170612155 92.00468510338328 18.719270164929053
    vertex 443.7496717061274 92.00468996043773 18.719270177592403
  endloop
endfacet
facet normal -0.9999999999964289 2.6723946067771398e-06 -2.5326701786233683e-08
  outer loop
    vertex 443.7496717061274 92.00468996043773 18.719270177592403
    vertex 443.74967728645964 94.00469670435943 10.419413235472176
    vertex 443.74967194165134 92.00468952908066 10.419412827847657
  endloop
endfacet
facet normal -0.9999999999964289 2.6723946067771398e-06 -2.5326701786233683e-08
  outer loop
    vertex 443.74967728645964 94.00469670435943 10.419413235472176
    vertex 443.7496717061274 92.00468996043773 18.719270177592403
    vertex 443.7496770509357 94.0046971357165 18.719270585216922
  endloop
endfacet
facet normal 0.9999999999973955 -2.2822069492881806e-06 2.5314642694918748e-08
  outer loop
    vertex 432.7496727272421 92.00474872771011 10.41940214698275
    vertex 432.7496770561318 94.00469961301728 18.719270559896252
    vertex 432.7496724917182 92.00469961305309 18.7192594967275
  endloop
endfacet
facet normal 0.9999999999973955 -2.2822069492881806e-06 2.5314642694918748e-08
  outer loop
    vertex 432.7496770561318 94.00469961301728 18.719270559896252
    vertex 432.7496727272421 92.00474872771011 10.41940214698275
    vertex 432.74967729165576 94.00474872767431 10.419413210151504
  endloop
endfacet
facet normal 0.9914448613723503 -2.031788130194389e-06 0.13052619221532957
  outer loop
    vertex 436.70419878045743 94.00472186437567 13.655374563614759
    vertex 436.64968696274843 98.00472739660536 14.069495191799287
    vertex 436.6496801025201 94.0047209064511 14.069485035777086
  endloop
endfacet
facet normal 0.9914448613723503 -2.031788130194389e-06 0.13052619221532957
  outer loop
    vertex 436.64968696274843 98.00472739660536 14.069495191799287
    vertex 436.70419878045743 94.00472186437567 13.655374563614759
    vertex 436.70420564068576 98.00472835452993 13.65538471963696
  endloop
endfacet
facet normal 0.9914448613723502 -1.3689757528443208e-06 -0.13052619222396378
  outer loop
    vertex 436.6496801025201 94.0047209064511 14.069485035777086
    vertex 436.70420564068576 98.00472625167578 14.483605663961143
    vertex 436.70419878045743 94.00471976152151 14.483595507938942
  endloop
endfacet
facet normal 0.9914448613723502 -1.3689757528443208e-06 -0.13052619222396378
  outer loop
    vertex 436.70420564068576 98.00472625167578 14.483605663961143
    vertex 436.6496801025201 94.0047209064511 14.069485035777086
    vertex 436.64968696274843 98.00472739660536 14.069495191799287
  endloop
endfacet
facet normal 0.9238795325099621 -6.128699402776986e-07 -0.38268343236779706
  outer loop
    vertex 436.70419878045743 94.00471976152151 14.483595507938942
    vertex 436.8640463166926 98.00472499776625 14.869495191794606
    vertex 436.86403945646435 94.00471850761201 14.869485035772405
  endloop
endfacet
facet normal 0.9238795325099621 -6.128699402776986e-07 -0.38268343236779706
  outer loop
    vertex 436.8640463166926 98.00472499776625 14.869495191794606
    vertex 436.70419878045743 94.00471976152151 14.483595507938942
    vertex 436.70420564068576 98.00472625167578 14.483605663961143
  endloop
endfacet
facet normal 0.7933533402900526 1.8500194590402507e-07 -0.6087614290102341
  outer loop
    vertex 436.86403945646435 94.00471850761201 14.869485035772405
    vertex 437.11831611284856 98.00472372032863 15.20086604169042
    vertex 437.11830925262024 94.0047172301744 15.200855885668219
  endloop
endfacet
facet normal 0.7933533402900526 1.8500194590402507e-07 -0.6087614290102341
  outer loop
    vertex 437.11831611284856 98.00472372032863 15.20086604169042
    vertex 436.86403945646435 94.00471850761201 14.869485035772405
    vertex 436.8640463166926 98.00472499776625 14.869495191794606
  endloop
endfacet
facet normal 0.6087614290078038 9.702662552022166e-07 -0.7933533402913454
  outer loop
    vertex 437.11831611284856 98.00472372032863 15.20086604169042
    vertex 437.4496801025178 94.00471601626394 15.455125681822212
    vertex 437.11830925262024 94.0047172301744 15.200855885668219
  endloop
endfacet
facet normal 0.6087614290078038 9.702662552022166e-07 -0.7933533402913454
  outer loop
    vertex 437.4496801025178 94.00471601626394 15.455125681822212
    vertex 437.11831611284856 98.00472372032863 15.20086604169042
    vertex 437.44968696274606 98.0047225064182 15.455135837844413
  endloop
endfacet
facet normal 0.3826834323645043 1.6894085226491682e-06 -0.9238795325099847
  outer loop
    vertex 437.44968696274606 98.0047225064182 15.455135837844413
    vertex 437.8355696303526 94.00471494860666 15.61496635782719
    vertex 437.4496801025178 94.00471601626394 15.455125681822212
  endloop
endfacet
facet normal 0.3826834323645043 1.6894085226491682e-06 -0.9238795325099847
  outer loop
    vertex 437.8355696303526 94.00471494860666 15.61496635782719
    vertex 437.44968696274606 98.0047225064182 15.455135837844413
    vertex 437.83557649058093 98.00472143876092 15.61497651384939
  endloop
endfacet
facet normal 0.13052619221986594 2.293420391157111e-06 -0.9914448613711823
  outer loop
    vertex 437.83557649058093 98.00472143876092 15.61497651384939
    vertex 438.2496801025154 94.00471409996172 15.669485035762621
    vertex 437.8355696303526 94.00471494860666 15.61496635782719
  endloop
endfacet
facet normal 0.13052619221986594 2.293420391157111e-06 -0.9914448613711823
  outer loop
    vertex 438.2496801025154 94.00471409996172 15.669485035762621
    vertex 437.83557649058093 98.00472143876092 15.61497651384939
    vertex 438.24968696274374 98.00472059011592 15.66949519178482
  endloop
endfacet
facet normal -0.13052619221987313 2.7411394500642005e-06 -0.9914448613700446
  outer loop
    vertex 438.24968696274374 98.00472059011592 15.66949519178482
    vertex 438.6637905746782 94.00471352816265 15.61496635782358
    vertex 438.2496801025154 94.00471409996172 15.669485035762621
  endloop
endfacet
facet normal -0.13052619221987313 2.7411394500642005e-06 -0.9914448613700446
  outer loop
    vertex 438.6637905746782 94.00471352816265 15.61496635782358
    vertex 438.24968696274374 98.00472059011592 15.66949519178482
    vertex 438.6637974349065 98.0047200183169 15.61497651384578
  endloop
endfacet
facet normal -0.38268343236450564 3.0020543853964763e-06 -0.9238795325066513
  outer loop
    vertex 438.6637974349065 98.0047200183169 15.61497651384578
    vertex 439.0496801025131 94.00471327217684 15.455125681815241
    vertex 438.6637905746782 94.00471352816265 15.61496635782358
  endloop
endfacet
facet normal -0.38268343236450564 3.0020543853964763e-06 -0.9238795325066513
  outer loop
    vertex 439.0496801025131 94.00471327217684 15.455125681815241
    vertex 438.6637974349065 98.0047200183169 15.61497651384578
    vertex 439.04968696274136 98.00471976233105 15.45513583783744
  endloop
endfacet
facet normal -0.6087614290078022 3.0583842754934747e-06 -0.793353340286045
  outer loop
    vertex 439.04968696274136 98.00471976233105 15.45513583783744
    vertex 439.3810509524106 94.00471334944916 15.200855885658363
    vertex 439.0496801025131 94.00471327217684 15.455125681815241
  endloop
endfacet
facet normal -0.6087614290078022 3.0583842754934747e-06 -0.793353340286045
  outer loop
    vertex 439.3810509524106 94.00471334944916 15.200855885658363
    vertex 439.04968696274136 98.00471976233105 15.45513583783744
    vertex 439.3810578126389 98.00471983960337 15.200866041680564
  endloop
endfacet
facet normal -0.7933533402900518 2.906290331434582e-06 -0.6087614290033255
  outer loop
    vertex 439.3810578126389 98.00471983960337 15.200866041680564
    vertex 439.63532074856647 94.00471375471362 14.869485035760334
    vertex 439.3810509524106 94.00471334944916 15.200855885658363
  endloop
endfacet
facet normal -0.7933533402900518 2.906290331434582e-06 -0.6087614290033255
  outer loop
    vertex 439.63532074856647 94.00471375471362 14.869485035760334
    vertex 439.3810578126389 98.00471983960337 15.200866041680564
    vertex 439.6353276087948 98.00472024486787 14.869495191782535
  endloop
endfacet
facet normal -0.9238795325099625 2.556137504160085e-06 -0.3826834323597501
  outer loop
    vertex 439.6353276087948 98.00472024486787 14.869495191782535
    vertex 439.7951614245734 94.00471446035226 14.483595507925479
    vertex 439.63532074856647 94.00471375471362 14.869485035760334
  endloop
endfacet
facet normal -0.9238795325099625 2.556137504160085e-06 -0.3826834323597501
  outer loop
    vertex 439.7951614245734 94.00471446035226 14.483595507925479
    vertex 439.6353276087948 98.00472024486787 14.869495191782535
    vertex 439.79516828480166 98.00472095050647 14.48360566394768
  endloop
endfacet
facet normal -0.9914448613723503 2.031788130194389e-06 -0.13052619221532957
  outer loop
    vertex 439.79516828480166 98.00472095050647 14.48360566394768
    vertex 439.8496801025107 94.00471541827682 14.069485035763151
    vertex 439.7951614245734 94.00471446035226 14.483595507925479
  endloop
endfacet
facet normal -0.9914448613723503 2.031788130194389e-06 -0.13052619221532957
  outer loop
    vertex 439.8496801025107 94.00471541827682 14.069485035763151
    vertex 439.79516828480166 98.00472095050647 14.48360566394768
    vertex 439.84968696273904 98.00472190843105 14.069495191785352
  endloop
endfacet
facet normal -0.9914448613723502 1.3689757528443208e-06 0.13052619222396378
  outer loop
    vertex 439.84968696273904 98.00472190843105 14.069495191785352
    vertex 439.7951614245734 94.0047165632064 13.655374563601296
    vertex 439.8496801025107 94.00471541827682 14.069485035763151
  endloop
endfacet
facet normal -0.9914448613723502 1.3689757528443208e-06 0.13052619222396378
  outer loop
    vertex 439.7951614245734 94.0047165632064 13.655374563601296
    vertex 439.84968696273904 98.00472190843105 14.069495191785352
    vertex 439.79516828480166 98.00472305336064 13.655384719623497
  endloop
endfacet
facet normal -0.9238795325099621 6.128699402776986e-07 0.38268343236779706
  outer loop
    vertex 439.79516828480166 98.00472305336064 13.655384719623497
    vertex 439.63532074856647 94.00471781711592 13.269485035767833
    vertex 439.7951614245734 94.0047165632064 13.655374563601296
  endloop
endfacet
facet normal -0.9238795325099621 6.128699402776986e-07 0.38268343236779706
  outer loop
    vertex 439.63532074856647 94.00471781711592 13.269485035767833
    vertex 439.79516828480166 98.00472305336064 13.655384719623497
    vertex 439.6353276087948 98.00472430727015 13.269495191790034
  endloop
endfacet
facet normal -0.7933533402900526 -1.8500194590402507e-07 0.6087614290102341
  outer loop
    vertex 439.6353276087948 98.00472430727015 13.269495191790034
    vertex 439.3810509524106 94.00471909455352 12.938114185872019
    vertex 439.63532074856647 94.00471781711592 13.269485035767833
  endloop
endfacet
facet normal -0.7933533402900526 -1.8500194590402507e-07 0.6087614290102341
  outer loop
    vertex 439.3810509524106 94.00471909455352 12.938114185872019
    vertex 439.6353276087948 98.00472430727015 13.269495191790034
    vertex 439.3810578126389 98.00472558470778 12.93812434189422
  endloop
endfacet
facet normal -0.6087614290078017 -9.702662552022244e-07 0.7933533402913471
  outer loop
    vertex 439.3810509524106 94.00471909455352 12.938114185872019
    vertex 439.04968696274136 98.00472679861821 12.683854545740228
    vertex 439.0496801025131 94.00472030846399 12.68384438971803
  endloop
endfacet
facet normal -0.6087614290078017 -9.702662552022244e-07 0.7933533402913471
  outer loop
    vertex 439.04968696274136 98.00472679861821 12.683854545740228
    vertex 439.3810509524106 94.00471909455352 12.938114185872019
    vertex 439.3810578126389 98.00472558470778 12.93812434189422
  endloop
endfacet
facet normal -0.3826834323645043 -1.6894085226491682e-06 0.9238795325099847
  outer loop
    vertex 439.0496801025131 94.00472030846399 12.68384438971803
    vertex 438.6637974349065 98.00472786627547 12.524013869735251
    vertex 438.6637905746782 94.00472137612125 12.524003713713052
  endloop
endfacet
facet normal -0.3826834323645043 -1.6894085226491682e-06 0.9238795325099847
  outer loop
    vertex 438.6637974349065 98.00472786627547 12.524013869735251
    vertex 439.0496801025131 94.00472030846399 12.68384438971803
    vertex 439.04968696274136 98.00472679861821 12.683854545740228
  endloop
endfacet
facet normal -0.13052619221986925 -2.2934203911571046e-06 0.9914448613711818
  outer loop
    vertex 438.6637905746782 94.00472137612125 12.524003713713052
    vertex 438.24968696274374 98.00472871492049 12.469495191799817
    vertex 438.2496801025154 94.00472222476621 12.46948503577762
  endloop
endfacet
facet normal -0.13052619221986925 -2.2934203911571046e-06 0.9914448613711818
  outer loop
    vertex 438.24968696274374 98.00472871492049 12.469495191799817
    vertex 438.6637905746782 94.00472137612125 12.524003713713052
    vertex 438.6637974349065 98.00472786627547 12.524013869735251
  endloop
endfacet
facet normal 0.13052619221986983 -2.7411394500641963e-06 0.9914448613700452
  outer loop
    vertex 438.2496801025154 94.00472222476621 12.46948503577762
    vertex 437.83557649058093 98.00472928671951 12.524013869738857
    vertex 437.8355696303526 94.00472279656526 12.52400371371666
  endloop
endfacet
facet normal 0.13052619221986983 -2.7411394500641963e-06 0.9914448613700452
  outer loop
    vertex 437.83557649058093 98.00472928671951 12.524013869738857
    vertex 438.2496801025154 94.00472222476621 12.46948503577762
    vertex 438.24968696274374 98.00472871492049 12.469495191799817
  endloop
endfacet
facet normal 0.38268343236450564 -3.0020543853964763e-06 0.9238795325066513
  outer loop
    vertex 437.8355696303526 94.00472279656526 12.52400371371666
    vertex 437.44968696274606 98.00472954270536 12.683854545747197
    vertex 437.4496801025178 94.00472305255109 12.683844389725
  endloop
endfacet
facet normal 0.38268343236450564 -3.0020543853964763e-06 0.9238795325066513
  outer loop
    vertex 437.44968696274606 98.00472954270536 12.683854545747197
    vertex 437.8355696303526 94.00472279656526 12.52400371371666
    vertex 437.83557649058093 98.00472928671951 12.524013869738857
  endloop
endfacet
facet normal 0.6087614290078043 -3.058384275493474e-06 0.7933533402860433
  outer loop
    vertex 437.4496801025178 94.00472305255109 12.683844389725
    vertex 437.11831611284856 98.00472946543304 12.938124341904075
    vertex 437.11830925262024 94.00472297527877 12.938114185881874
  endloop
endfacet
facet normal 0.6087614290078043 -3.058384275493474e-06 0.7933533402860433
  outer loop
    vertex 437.11831611284856 98.00472946543304 12.938124341904075
    vertex 437.4496801025178 94.00472305255109 12.683844389725
    vertex 437.44968696274606 98.00472954270536 12.683854545747197
  endloop
endfacet
facet normal 0.7933533402900518 -2.906290331434582e-06 0.6087614290033255
  outer loop
    vertex 437.11830925262024 94.00472297527877 12.938114185881874
    vertex 436.8640463166926 98.00472906016853 13.269495191802104
    vertex 436.86403945646435 94.00472257001431 13.269485035779903
  endloop
endfacet
facet normal 0.7933533402900518 -2.906290331434582e-06 0.6087614290033255
  outer loop
    vertex 436.8640463166926 98.00472906016853 13.269495191802104
    vertex 437.11830925262024 94.00472297527877 12.938114185881874
    vertex 437.11831611284856 98.00472946543304 12.938124341904075
  endloop
endfacet
facet normal 0.9238795325099625 -2.556137504160085e-06 0.3826834323597501
  outer loop
    vertex 436.86403945646435 94.00472257001431 13.269485035779903
    vertex 436.70420564068576 98.00472835452993 13.65538471963696
    vertex 436.70419878045743 94.00472186437567 13.655374563614759
  endloop
endfacet
facet normal 0.9238795325099625 -2.556137504160085e-06 0.3826834323597501
  outer loop
    vertex 436.70420564068576 98.00472835452993 13.65538471963696
    vertex 436.86403945646435 94.00472257001431 13.269485035779903
    vertex 436.8640463166926 98.00472906016853 13.269495191802104
  endloop
endfacet
facet normal -2.477300705548281e-06 -0.9999999999926679 -2.9201449544338723e-06
  outer loop
    vertex 432.74967729165576 94.00474872767431 10.419413210151504
    vertex 436.86403945646435 94.00472257001431 13.269485035779903
    vertex 432.7496770561318 94.00469961301728 18.719270559896252
  endloop
endfacet
facet normal -2.477300705548281e-06 -0.9999999999926679 -2.9201449544338723e-06
  outer loop
    vertex 436.86403945646435 94.00472257001431 13.269485035779903
    vertex 432.74967729165576 94.00474872767431 10.419413210151504
    vertex 437.11830925262024 94.00472297527877 12.938114185881874
  endloop
endfacet
facet normal -2.477300705548281e-06 -0.9999999999926679 -2.9201449544338723e-06
  outer loop
    vertex 437.11830925262024 94.00472297527877 12.938114185881874
    vertex 432.74967729165576 94.00474872767431 10.419413210151504
    vertex 437.4496801025178 94.00472305255109 12.683844389725
  endloop
endfacet
facet normal -2.477300705548281e-06 -0.9999999999926679 -2.9201449544338723e-06
  outer loop
    vertex 437.4496801025178 94.00472305255109 12.683844389725
    vertex 432.74967729165576 94.00474872767431 10.419413210151504
    vertex 437.8355696303526 94.00472279656526 12.52400371371666
  endloop
endfacet
facet normal -2.477300705548281e-06 -0.9999999999926679 -2.9201449544338723e-06
  outer loop
    vertex 437.8355696303526 94.00472279656526 12.52400371371666
    vertex 432.74967729165576 94.00474872767431 10.419413210151504
    vertex 443.74967728645964 94.00469670435943 10.419413235472176
  endloop
endfacet
facet normal -2.477300705548281e-06 -0.9999999999926679 -2.9201449544338723e-06
  outer loop
    vertex 437.8355696303526 94.00472279656526 12.52400371371666
    vertex 443.74967728645964 94.00469670435943 10.419413235472176
    vertex 438.2496801025154 94.00472222476621 12.46948503577762
  endloop
endfacet
facet normal -2.477300705548281e-06 -0.9999999999926679 -2.9201449544338723e-06
  outer loop
    vertex 432.7496770561318 94.00469961301728 18.719270559896252
    vertex 436.86403945646435 94.00472257001431 13.269485035779903
    vertex 436.70419878045743 94.00472186437567 13.655374563614759
  endloop
endfacet
facet normal -2.477300705548281e-06 -0.9999999999926679 -2.9201449544338723e-06
  outer loop
    vertex 432.7496770561318 94.00469961301728 18.719270559896252
    vertex 436.70419878045743 94.00472186437567 13.655374563614759
    vertex 436.6496801025201 94.0047209064511 14.069485035777086
  endloop
endfacet
facet normal -2.477300705548281e-06 -0.9999999999926679 -2.9201449544338723e-06
  outer loop
    vertex 432.7496770561318 94.00469961301728 18.719270559896252
    vertex 436.6496801025201 94.0047209064511 14.069485035777086
    vertex 436.70419878045743 94.00471976152151 14.483595507938942
  endloop
endfacet
facet normal -2.477300705548281e-06 -0.9999999999926679 -2.9201449544338723e-06
  outer loop
    vertex 432.7496770561318 94.00469961301728 18.719270559896252
    vertex 436.70419878045743 94.00471976152151 14.483595507938942
    vertex 436.86403945646435 94.00471850761201 14.869485035772405
  endloop
endfacet
facet normal -2.477300705548281e-06 -0.9999999999926679 -2.9201449544338723e-06
  outer loop
    vertex 432.7496770561318 94.00469961301728 18.719270559896252
    vertex 436.86403945646435 94.00471850761201 14.869485035772405
    vertex 437.11830925262024 94.0047172301744 15.200855885668219
  endloop
endfacet
facet normal -2.477300705548281e-06 -0.9999999999926679 -2.9201449544338723e-06
  outer loop
    vertex 432.7496770561318 94.00469961301728 18.719270559896252
    vertex 437.11830925262024 94.0047172301744 15.200855885668219
    vertex 437.4496801025178 94.00471601626394 15.455125681822212
  endloop
endfacet
facet normal -2.477300705548281e-06 -0.9999999999926679 -2.9201449544338723e-06
  outer loop
    vertex 432.7496770561318 94.00469961301728 18.719270559896252
    vertex 437.4496801025178 94.00471601626394 15.455125681822212
    vertex 437.8355696303526 94.00471494860666 15.61496635782719
  endloop
endfacet
facet normal -2.477300705548281e-06 -0.9999999999926679 -2.9201449544338723e-06
  outer loop
    vertex 432.7496770561318 94.00469961301728 18.719270559896252
    vertex 437.8355696303526 94.00471494860666 15.61496635782719
    vertex 438.2496801025154 94.00471409996172 15.669485035762621
  endloop
endfacet
facet normal -2.477300705548281e-06 -0.9999999999926679 -2.9201449544338723e-06
  outer loop
    vertex 443.74967728645964 94.00469670435943 10.419413235472176
    vertex 438.6637905746782 94.00472137612125 12.524003713713052
    vertex 438.2496801025154 94.00472222476621 12.46948503577762
  endloop
endfacet
facet normal -2.477300705548281e-06 -0.9999999999926679 -2.9201449544338723e-06
  outer loop
    vertex 438.6637905746782 94.00472137612125 12.524003713713052
    vertex 443.74967728645964 94.00469670435943 10.419413235472176
    vertex 439.0496801025131 94.00472030846399 12.68384438971803
  endloop
endfacet
facet normal -2.477300705548281e-06 -0.9999999999926679 -2.9201449544338723e-06
  outer loop
    vertex 439.0496801025131 94.00472030846399 12.68384438971803
    vertex 443.74967728645964 94.00469670435943 10.419413235472176
    vertex 439.3810509524106 94.00471909455352 12.938114185872019
  endloop
endfacet
facet normal -2.477300705548281e-06 -0.9999999999926679 -2.9201449544338723e-06
  outer loop
    vertex 439.3810509524106 94.00471909455352 12.938114185872019
    vertex 443.74967728645964 94.00469670435943 10.419413235472176
    vertex 439.63532074856647 94.00471781711592 13.269485035767833
  endloop
endfacet
facet normal -2.477300705548281e-06 -0.9999999999926679 -2.9201449544338723e-06
  outer loop
    vertex 439.63532074856647 94.00471781711592 13.269485035767833
    vertex 443.74967728645964 94.00469670435943 10.419413235472176
    vertex 443.7496770509357 94.0046971357165 18.719270585216922
  endloop
endfacet
facet normal -2.477300705548281e-06 -0.9999999999926679 -2.9201449544338723e-06
  outer loop
    vertex 439.63532074856647 94.00471781711592 13.269485035767833
    vertex 443.7496770509357 94.0046971357165 18.719270585216922
    vertex 439.7951614245734 94.0047165632064 13.655374563601296
  endloop
endfacet
facet normal -2.477300705548281e-06 -0.9999999999926679 -2.9201449544338723e-06
  outer loop
    vertex 439.7951614245734 94.0047165632064 13.655374563601296
    vertex 443.7496770509357 94.0046971357165 18.719270585216922
    vertex 439.8496801025107 94.00471541827682 14.069485035763151
  endloop
endfacet
facet normal -2.477300705548281e-06 -0.9999999999926679 -2.9201449544338723e-06
  outer loop
    vertex 439.8496801025107 94.00471541827682 14.069485035763151
    vertex 443.7496770509357 94.0046971357165 18.719270585216922
    vertex 439.7951614245734 94.00471446035226 14.483595507925479
  endloop
endfacet
facet normal -2.477300705548281e-06 -0.9999999999926679 -2.9201449544338723e-06
  outer loop
    vertex 439.7951614245734 94.00471446035226 14.483595507925479
    vertex 443.7496770509357 94.0046971357165 18.719270585216922
    vertex 439.63532074856647 94.00471375471362 14.869485035760334
  endloop
endfacet
facet normal -2.477300705548281e-06 -0.9999999999926679 -2.9201449544338723e-06
  outer loop
    vertex 439.63532074856647 94.00471375471362 14.869485035760334
    vertex 443.7496770509357 94.0046971357165 18.719270585216922
    vertex 439.3810509524106 94.00471334944916 15.200855885658363
  endloop
endfacet
facet normal -2.477300705548281e-06 -0.9999999999926679 -2.9201449544338723e-06
  outer loop
    vertex 439.3810509524106 94.00471334944916 15.200855885658363
    vertex 443.7496770509357 94.0046971357165 18.719270585216922
    vertex 439.0496801025131 94.00471327217684 15.455125681815241
  endloop
endfacet
facet normal -2.477300705548281e-06 -0.9999999999926679 -2.9201449544338723e-06
  outer loop
    vertex 439.0496801025131 94.00471327217684 15.455125681815241
    vertex 443.7496770509357 94.0046971357165 18.719270585216922
    vertex 438.6637905746782 94.00471352816265 15.61496635782358
  endloop
endfacet
facet normal -2.477300705548281e-06 -0.9999999999926679 -2.9201449544338723e-06
  outer loop
    vertex 438.6637905746782 94.00471352816265 15.61496635782358
    vertex 443.7496770509357 94.0046971357165 18.719270585216922
    vertex 438.2496801025154 94.00471409996172 15.669485035762621
  endloop
endfacet
facet normal -2.477300705548281e-06 -0.9999999999926679 -2.9201449544338723e-06
  outer loop
    vertex 438.2496801025154 94.00471409996172 15.669485035762621
    vertex 443.7496770509357 94.0046971357165 18.719270585216922
    vertex 443.2496770509375 94.00469847191381 18.719270572553572
  endloop
endfacet
facet normal -2.477300705548281e-06 -0.9999999999926679 -2.9201449544338723e-06
  outer loop
    vertex 438.2496801025154 94.00471409996172 15.669485035762621
    vertex 443.2496770509375 94.00469847191381 18.719270572553572
    vertex 432.7496770561318 94.00469961301728 18.719270559896252
  endloop
endfacet
facet normal -2.477300705548281e-06 -0.9999999999926679 -2.9201449544338723e-06
  outer loop
    vertex 433.2496770561305 94.00469847191381 18.719270572553572
    vertex 432.7496770561318 94.00469961301728 18.719270559896252
    vertex 443.2496770509375 94.00469847191381 18.719270572553572
  endloop
endfacet
facet normal 3.454795578494017e-23 -0.9999999999960372 -2.8152531296576903e-06
  outer loop
    vertex 443.24967705094184 94.00468439564816 23.719270572533762
    vertex 433.2496770561305 94.00469847191381 18.719270572553572
    vertex 443.2496770509375 94.00469847191381 18.719270572553572
  endloop
endfacet
facet normal 3.454795578494017e-23 -0.9999999999960372 -2.8152531296576903e-06
  outer loop
    vertex 433.2496770561305 94.00469847191381 18.719270572553572
    vertex 443.24967705094184 94.00468439564816 23.719270572533762
    vertex 433.24967705613483 94.00468439564816 23.719270572533762
  endloop
endfacet
endsolid nodemcu_DIN_rail_case
